<svg xmlns="http://www.w3.org/2000/svg" width="1024" height="1024" viewBox="0 0 1024 1024"><defs><radialGradient id="bg" cx="50%" cy="44%" r="72%"><stop offset="0" stop-color="#071b3c"/><stop offset=".58" stop-color="#020b1c"/><stop offset="1" stop-color="#00050d"/></radialGradient><linearGradient id="blue" x1="0" y1="1" x2="1" y2="0"><stop stop-color="#0876d7"/><stop offset="1" stop-color="#04dcf5"/></linearGradient><linearGradient id="white" x1="0" y1="1" x2="0" y2="0"><stop stop-color="#dce5ee"/><stop offset=".5" stop-color="#fff"/><stop offset="1" stop-color="#f7f7f7"/></linearGradient><filter id="glow"><feGaussianBlur stdDeviation="10" result="b"/><feMerge><feMergeNode in="b"/><feMergeNode in="SourceGraphic"/></feMerge></filter></defs><rect x="42" y="42" width="940" height="940" rx="112" fill="url(#bg)"/><g filter="url(#glow)"><path d="M305 304h318q28 0 24 28l-10 58H386l-33 238h208l-11 70H286q-31 0-25-35l43-328q4-31 31-31z" fill="url(#white)"/><path d="M629 320h183q33 0 28 34l-49 334q-4 29-34 29H594l13-78h121l31-229H657l-9 64q-4 30-35 30h-71q-30 0-26-30l8-56q5-31 35-31h42z" fill="url(#blue)"/><path d="M520 438c-46 5-72 28-78 68-6 39 13 63 58 70l55 8-18 133h81l24-174c4-31-10-47-42-52l-55-8 6-45z" fill="url(#blue)"/><g fill="#031020"><rect x="342" y="327" width="34" height="34" rx="5"/><rect x="402" y="327" width="34" height="34" rx="5"/><rect x="462" y="327" width="34" height="34" rx="5"/><rect x="522" y="327" width="34" height="34" rx="5"/><rect x="582" y="327" width="34" height="34" rx="5"/><rect x="298" y="650" width="34" height="34" rx="5"/><rect x="358" y="650" width="34" height="34" rx="5"/><rect x="418" y="650" width="34" height="34" rx="5"/><rect x="478" y="650" width="34" height="34" rx="5"/><rect x="668" y="345" width="34" height="34" rx="5"/><rect x="728" y="345" width="34" height="34" rx="5"/><rect x="788" y="345" width="34" height="34" rx="5"/><rect x="641" y="665" width="34" height="34" rx="5"/><rect x="701" y="665" width="34" height="34" rx="5"/><rect x="761" y="665" width="34" height="34" rx="5"/></g><g stroke-linecap="round"><path d="M285 425h-65" stroke="#fff" stroke-width="16"/><path d="M276 486H173" stroke="#fff" stroke-width="14"/><path d="M265 548H126" stroke="url(#blue)" stroke-width="13"/><path d="M276 608h-75" stroke="#15d5ee" stroke-width="13"/></g></g><text x="512" y="815" text-anchor="middle" font-family="Arial,Helvetica,sans-serif" font-size="83" font-style="italic" font-weight="700" fill="#fff">FrameJoin <tspan fill="#09cbee">Studio</tspan></text><path d="M160 873h100m504 0h100" stroke="#00ccee" stroke-width="4"/><text x="512" y="891" text-anchor="middle" font-family="Arial,'Microsoft YaHei',sans-serif" font-size="32" fill="#f5f7fb">Developed by 刚学会说话的萌新</text></svg>