<svg xmlns="http://www.w3.org/2000/svg" width="1920" height="1080" viewBox="0 0 1920 1080"><defs><radialGradient id="bg"><stop stop-color="#082249"/><stop offset=".52" stop-color="#031226"/><stop offset="1" stop-color="#000711"/></radialGradient><linearGradient id="blue" x1="0" y1="1" x2="1" y2="0"><stop stop-color="#0777d8"/><stop offset="1" stop-color="#02dff7"/></linearGradient><linearGradient id="white"><stop stop-color="#fff"/><stop offset="1" stop-color="#dce7f1"/></linearGradient><filter id="glow"><feGaussianBlur stdDeviation="7" result="b"/><feMerge><feMergeNode in="b"/><feMergeNode in="SourceGraphic"/></feMerge></filter></defs><rect width="1920" height="1080" fill="url(#bg)"/><g opacity=".48" stroke="#058de0" fill="none"><path d="M0 300L630 520M0 375L630 540M1920 300L1290 520M1920 375L1290 540"/><path d="M0 640L630 570M1920 640L1290 570"/></g><g opacity=".55" stroke="#0cbcff" fill="none" stroke-width="3"><path d="M0 468h560M1360 468h560"/><g transform="translate(-80 310)"><rect width="520" height="250" rx="8"/><path d="M0 38h520M0 212h520"/><path d="M48 0v250M150 0v250M252 0v250M354 0v250M456 0v250"/></g><g transform="translate(1480 310)"><rect width="520" height="250" rx="8"/><path d="M0 38h520M0 212h520"/><path d="M48 0v250M150 0v250M252 0v250M354 0v250M456 0v250"/></g></g><g transform="translate(590 185) scale(.73)" filter="url(#glow)"><path d="M305 304h318q28 0 24 28l-10 58H386l-33 238h208l-11 70H286q-31 0-25-35l43-328q4-31 31-31z" fill="url(#white)"/><path d="M629 320h183q33 0 28 34l-49 334q-4 29-34 29H594l13-78h121l31-229H657l-9 64q-4 30-35 30h-71q-30 0-26-30l8-56q5-31 35-31h42z" fill="url(#blue)"/><path d="M520 438c-46 5-72 28-78 68-6 39 13 63 58 70l55 8-18 133h81l24-174c4-31-10-47-42-52l-55-8 6-45z" fill="url(#blue)"/><g fill="#031020"><rect x="342" y="327" width="34" height="34"/><rect x="402" y="327" width="34" height="34"/><rect x="462" y="327" width="34" height="34"/><rect x="522" y="327" width="34" height="34"/><rect x="582" y="327" width="34" height="34"/><rect x="298" y="650" width="34" height="34"/><rect x="358" y="650" width="34" height="34"/><rect x="418" y="650" width="34" height="34"/><rect x="478" y="650" width="34" height="34"/><rect x="668" y="345" width="34" height="34"/><rect x="728" y="345" width="34" height="34"/><rect x="788" y="345" width="34" height="34"/><rect x="641" y="665" width="34" height="34"/><rect x="701" y="665" width="34" height="34"/><rect x="761" y="665" width="34" height="34"/></g></g><text x="960" y="680" text-anchor="middle" font-family="Arial,Helvetica,sans-serif" font-size="112" font-style="italic" font-weight="700" fill="#fff">FrameJoin <tspan fill="#08ccee">Studio</tspan></text><g font-family="Arial,'Microsoft YaHei',sans-serif"><circle cx="570" cy="820" r="48" fill="#082341" stroke="#3476ae"/><path d="M581 780l-35 50h27l-17 42 47-58h-29z" fill="#05d9ff"/><text x="640" y="812" font-size="37" fill="#fff">无损拼接</text><text x="640" y="850" font-size="24" fill="#91a8bb">逐帧无损，画质如初</text><path d="M960 780v95" stroke="#52708c"/><circle cx="1100" cy="820" r="48" fill="#082341" stroke="#3476ae"/><rect x="1074" y="793" width="52" height="52" rx="5" fill="none" stroke="#06d9f5" stroke-width="5" stroke-dasharray="9 7"/><path d="M1093 806l22 13-22 13z" fill="#06d9f5"/><text x="1170" y="812" font-size="37" fill="#fff">序列帧转视频</text><text x="1170" y="850" font-size="24" fill="#91a8bb">无损或目标码流，支持显卡加速</text><text x="960" y="1000" text-anchor="middle" font-size="29" fill="#9babb9">Developed by 刚学会说话的萌新</text></g></svg>